<svg xmlns="http://www.w3.org/2000/svg" width="2000" height="1360" viewBox="0 0 2000 1360">
<rect width="2000" height="1360" fill="#FFFFFF"/>
<rect x="60" y="46" width="1880" height="128" rx="24" fill="#2E5E8C"/>
<text x="1000.0" y="155.9" font-size="54" fill="#FFFFFF" text-anchor="middle" font-family="PingFang SC,STHeiti,sans-serif">预测性维护：健康度趋势与预警阈值</text>
<text x="1000.0" y="215.5" font-size="30" fill="#5A6B7B" text-anchor="middle" font-family="PingFang SC,STHeiti,sans-serif">停机代价 &gt;&gt; 检修代价 → 阈值偏敏感：宁可多检修，也别让设备趴窝</text>
<line x1="180" y1="950" x2="1470" y2="950" stroke="#2B3A4A" stroke-width="6" stroke-linecap="round"/>
<polygon points="1470,950 1446.6,961.3 1446.6,938.7" fill="#2B3A4A"/>
<line x1="180" y1="950" x2="180" y2="350" stroke="#2B3A4A" stroke-width="6" stroke-linecap="round"/>
<polygon points="180,350 191.3,373.4 168.7,373.4" fill="#2B3A4A"/>
<text x="1450" y="953.8" font-size="28" fill="#5A6B7B" text-anchor="start" font-family="PingFang SC,STHeiti,sans-serif">时间 →</text>
<text x="50" y="383.8" font-size="28" fill="#5A6B7B" text-anchor="start" font-family="PingFang SC,STHeiti,sans-serif">健康度 ↑</text>
<rect x="180" y="390" width="687" height="560" rx="0" fill="#E3F1E6"/>
<rect x="867" y="390" width="312" height="560" rx="0" fill="#FDEBD3"/>
<rect x="1180" y="390" width="250" height="560" rx="0" fill="#F9E3DF"/>
<line x1="180" y1="698.0" x2="1430" y2="698.0" stroke="#F2A03D" stroke-width="4" stroke-linecap="round"/>
<text x="1444" y="720.1" font-size="26" fill="#F2A03D" text-anchor="start" font-family="PingFang SC,STHeiti,sans-serif">预警阈值 0.35</text>
<line x1="180.0" y1="390.0" x2="201.1864406779661" y2="388.32767266517135" stroke="#2E5E8C" stroke-width="7" stroke-linecap="round"/>
<line x1="201.1864406779661" y1="388.32767266517135" x2="222.3728813559322" y2="386.8672837810449" stroke="#2E5E8C" stroke-width="7" stroke-linecap="round"/>
<line x1="222.3728813559322" y1="386.8672837810449" x2="243.5593220338983" y2="385.8066503700305" stroke="#2E5E8C" stroke-width="7" stroke-linecap="round"/>
<line x1="243.5593220338983" y1="385.8066503700305" x2="264.7457627118644" y2="385.2880919388813" stroke="#2E5E8C" stroke-width="7" stroke-linecap="round"/>
<line x1="264.7457627118644" y1="385.2880919388813" x2="285.93220338983053" y2="385.39223261669486" stroke="#2E5E8C" stroke-width="7" stroke-linecap="round"/>
<line x1="285.93220338983053" y1="385.39223261669486" x2="307.1186440677966" y2="386.1288250514632" stroke="#2E5E8C" stroke-width="7" stroke-linecap="round"/>
<line x1="307.1186440677966" y1="386.1288250514632" x2="328.3050847457627" y2="387.4356404283848" stroke="#2E5E8C" stroke-width="7" stroke-linecap="round"/>
<line x1="328.3050847457627" y1="387.4356404283848" x2="349.49152542372883" y2="389.1855509406913" stroke="#2E5E8C" stroke-width="7" stroke-linecap="round"/>
<line x1="349.49152542372883" y1="389.1855509406913" x2="370.6779661016949" y2="391.20099863314636" stroke="#2E5E8C" stroke-width="7" stroke-linecap="round"/>
<line x1="370.6779661016949" y1="391.20099863314636" x2="391.864406779661" y2="393.27420387045265" stroke="#2E5E8C" stroke-width="7" stroke-linecap="round"/>
<line x1="391.864406779661" y1="393.27420387045265" x2="413.0508474576271" y2="395.1908134367666" stroke="#2E5E8C" stroke-width="7" stroke-linecap="round"/>
<line x1="413.0508474576271" y1="395.1908134367666" x2="434.23728813559325" y2="396.75429679653803" stroke="#2E5E8C" stroke-width="7" stroke-linecap="round"/>
<line x1="434.23728813559325" y1="396.75429679653803" x2="455.4237288135593" y2="397.80831389612774" stroke="#2E5E8C" stroke-width="7" stroke-linecap="round"/>
<line x1="455.4237288135593" y1="397.80831389612774" x2="476.6101694915254" y2="398.2545087514302" stroke="#2E5E8C" stroke-width="7" stroke-linecap="round"/>
<line x1="476.6101694915254" y1="398.2545087514302" x2="497.7966101694915" y2="398.0637036734122" stroke="#2E5E8C" stroke-width="7" stroke-linecap="round"/>
<line x1="497.7966101694915" y1="398.0637036734122" x2="518.9830508474577" y2="397.27922007909217" stroke="#2E5E8C" stroke-width="7" stroke-linecap="round"/>
<line x1="518.9830508474577" y1="397.27922007909217" x2="540.1694915254237" y2="396.01194793528236" stroke="#2E5E8C" stroke-width="7" stroke-linecap="round"/>
<line x1="540.1694915254237" y1="396.01194793528236" x2="561.3559322033898" y2="394.4277249982988" stroke="#2E5E8C" stroke-width="7" stroke-linecap="round"/>
<line x1="561.3559322033898" y1="394.4277249982988" x2="582.542372881356" y2="392.7284622608346" stroke="#2E5E8C" stroke-width="7" stroke-linecap="round"/>
<line x1="582.542372881356" y1="392.7284622608346" x2="603.728813559322" y2="391.1291637824095" stroke="#2E5E8C" stroke-width="7" stroke-linecap="round"/>
<line x1="603.728813559322" y1="391.1291637824095" x2="624.9152542372881" y2="389.83345635382057" stroke="#2E5E8C" stroke-width="7" stroke-linecap="round"/>
<line x1="624.9152542372881" y1="389.83345635382057" x2="646.1016949152543" y2="389.0104140468351" stroke="#2E5E8C" stroke-width="7" stroke-linecap="round"/>
<line x1="646.1016949152543" y1="389.0104140468351" x2="667.2881355932204" y2="388.77531532511216" stroke="#2E5E8C" stroke-width="7" stroke-linecap="round"/>
<line x1="667.2881355932204" y1="388.77531532511216" x2="688.4745762711865" y2="389.17652281431776" stroke="#2E5E8C" stroke-width="7" stroke-linecap="round"/>
<line x1="688.4745762711865" y1="389.17652281431776" x2="709.6610169491526" y2="390.1899789889462" stroke="#2E5E8C" stroke-width="7" stroke-linecap="round"/>
<line x1="709.6610169491526" y1="390.1899789889462" x2="730.8474576271186" y2="391.7219442402578" stroke="#2E5E8C" stroke-width="7" stroke-linecap="round"/>
<line x1="730.8474576271186" y1="391.7219442402578" x2="752.0338983050848" y2="393.6196656966024" stroke="#2E5E8C" stroke-width="7" stroke-linecap="round"/>
<line x1="752.0338983050848" y1="393.6196656966024" x2="773.2203389830509" y2="395.6887625417878" stroke="#2E5E8C" stroke-width="7" stroke-linecap="round"/>
<line x1="773.2203389830509" y1="395.6887625417878" x2="794.406779661017" y2="397.71534914990355" stroke="#2E5E8C" stroke-width="7" stroke-linecap="round"/>
<line x1="794.406779661017" y1="397.71534914990355" x2="815.593220338983" y2="399.49037812817585" stroke="#2E5E8C" stroke-width="7" stroke-linecap="round"/>
<line x1="815.593220338983" y1="399.49037812817585" x2="836.7796610169493" y2="400.83343270422813" stroke="#2E5E8C" stroke-width="7" stroke-linecap="round"/>
<line x1="836.7796610169493" y1="400.83343270422813" x2="857.9661016949152" y2="401.6132605660862" stroke="#2E5E8C" stroke-width="7" stroke-linecap="round"/>
<line x1="857.9661016949152" y1="401.6132605660862" x2="879.1525423728813" y2="418.3633900955966" stroke="#2E5E8C" stroke-width="7" stroke-linecap="round"/>
<line x1="879.1525423728813" y1="418.3633900955966" x2="900.3389830508474" y2="448.07011187163585" stroke="#2E5E8C" stroke-width="7" stroke-linecap="round"/>
<line x1="900.3389830508474" y1="448.07011187163585" x2="921.5254237288135" y2="477.22687087640327" stroke="#2E5E8C" stroke-width="7" stroke-linecap="round"/>
<line x1="921.5254237288135" y1="477.22687087640327" x2="942.7118644067797" y2="505.9720780871947" stroke="#2E5E8C" stroke-width="7" stroke-linecap="round"/>
<line x1="942.7118644067797" y1="505.9720780871947" x2="963.8983050847457" y2="534.4909845759369" stroke="#2E5E8C" stroke-width="7" stroke-linecap="round"/>
<line x1="963.8983050847457" y1="534.4909845759369" x2="985.0847457627118" y2="562.9945974612831" stroke="#2E5E8C" stroke-width="7" stroke-linecap="round"/>
<line x1="985.0847457627118" y1="562.9945974612831" x2="1006.271186440678" y2="591.6956644783556" stroke="#2E5E8C" stroke-width="7" stroke-linecap="round"/>
<line x1="1006.271186440678" y1="591.6956644783556" x2="1027.457627118644" y2="620.7844604430691" stroke="#2E5E8C" stroke-width="7" stroke-linecap="round"/>
<line x1="1027.457627118644" y1="620.7844604430691" x2="1048.6440677966102" y2="650.4071314350182" stroke="#2E5E8C" stroke-width="7" stroke-linecap="round"/>
<line x1="1048.6440677966102" y1="650.4071314350182" x2="1069.8305084745762" y2="680.6490614203442" stroke="#2E5E8C" stroke-width="7" stroke-linecap="round"/>
<line x1="1069.8305084745762" y1="680.6490614203442" x2="1091.0169491525423" y2="711.5251544152152" stroke="#2E5E8C" stroke-width="7" stroke-linecap="round"/>
<line x1="1091.0169491525423" y1="711.5251544152152" x2="1112.2033898305085" y2="742.9781382095898" stroke="#2E5E8C" stroke-width="7" stroke-linecap="round"/>
<line x1="1112.2033898305085" y1="742.9781382095898" x2="1133.3898305084745" y2="774.8850827101751" stroke="#2E5E8C" stroke-width="7" stroke-linecap="round"/>
<line x1="1133.3898305084745" y1="774.8850827101751" x2="1154.5762711864409" y2="807.0713910280307" stroke="#2E5E8C" stroke-width="7" stroke-linecap="round"/>
<line x1="1154.5762711864409" y1="807.0713910280307" x2="1175.7627118644068" y2="839.3306709380538" stroke="#2E5E8C" stroke-width="7" stroke-linecap="round"/>
<line x1="1175.7627118644068" y1="839.3306709380538" x2="1196.949152542373" y2="840.9899199879267" stroke="#2E5E8C" stroke-width="7" stroke-linecap="round"/>
<line x1="1196.949152542373" y1="840.9899199879267" x2="1218.135593220339" y2="842.3942999110728" stroke="#2E5E8C" stroke-width="7" stroke-linecap="round"/>
<line x1="1218.135593220339" y1="842.3942999110728" x2="1239.322033898305" y2="843.2985497735892" stroke="#2E5E8C" stroke-width="7" stroke-linecap="round"/>
<line x1="1239.322033898305" y1="843.2985497735892" x2="1260.5084745762713" y2="843.5997538556304" stroke="#2E5E8C" stroke-width="7" stroke-linecap="round"/>
<line x1="1260.5084745762713" y1="843.5997538556304" x2="1281.6949152542372" y2="843.2636311070038" stroke="#2E5E8C" stroke-width="7" stroke-linecap="round"/>
<line x1="1281.6949152542372" y1="843.2636311070038" x2="1302.8813559322034" y2="842.3284367888548" stroke="#2E5E8C" stroke-width="7" stroke-linecap="round"/>
<line x1="1302.8813559322034" y1="842.3284367888548" x2="1324.0677966101696" y2="840.9006085136591" stroke="#2E5E8C" stroke-width="7" stroke-linecap="round"/>
<line x1="1324.0677966101696" y1="840.9006085136591" x2="1345.2542372881355" y2="839.1426522223614" stroke="#2E5E8C" stroke-width="7" stroke-linecap="round"/>
<line x1="1345.2542372881355" y1="839.1426522223614" x2="1366.4406779661017" y2="837.2546468363698" stroke="#2E5E8C" stroke-width="7" stroke-linecap="round"/>
<line x1="1366.4406779661017" y1="837.2546468363698" x2="1387.6271186440679" y2="835.4514726022024" stroke="#2E5E8C" stroke-width="7" stroke-linecap="round"/>
<line x1="1387.6271186440679" y1="835.4514726022024" x2="1408.813559322034" y2="833.9383548475132" stroke="#2E5E8C" stroke-width="7" stroke-linecap="round"/>
<line x1="1408.813559322034" y1="833.9383548475132" x2="1430.0" y2="832.8875065959253" stroke="#2E5E8C" stroke-width="7" stroke-linecap="round"/>
<text x="523" y="457.2" font-size="32" fill="#5E9E6B" text-anchor="middle" font-family="PingFang SC,STHeiti,sans-serif">平稳运行</text>
<text x="1023" y="457.2" font-size="32" fill="#F2A03D" text-anchor="middle" font-family="PingFang SC,STHeiti,sans-serif">快速退化</text>
<text x="1305" y="457.2" font-size="32" fill="#D96C5F" text-anchor="middle" font-family="PingFang SC,STHeiti,sans-serif">故障</text>
<circle cx="1030" cy="513.2" r="18" fill="#F2A03D" stroke="#FFFFFF" stroke-width="4"/>
<text x="1056" y="511.00000000000006" font-size="28" fill="#2B3A4A" text-anchor="start" font-family="PingFang SC,STHeiti,sans-serif">报警：安排计划检修</text>
<rect x="1530" y="300" width="380" height="300" rx="26" fill="#E8F0F8" stroke="#9DB4C6" stroke-width="3"/>
<text x="1560" y="358.9" font-size="34" fill="#2B3A4A" text-anchor="start" font-family="PingFang SC,STHeiti,sans-serif">评估口径</text>
<text x="1560" y="415.8" font-size="28" fill="#2B3A4A" text-anchor="start" font-family="PingFang SC,STHeiti,sans-serif">故障前 1~10 步报警</text>
<text x="1560" y="452.8" font-size="28" fill="#2B3A4A" text-anchor="start" font-family="PingFang SC,STHeiti,sans-serif">→ 有效预警（0 成本）</text>
<text x="1560" y="495.8" font-size="28" fill="#2B3A4A" text-anchor="start" font-family="PingFang SC,STHeiti,sans-serif">提前 10 步以上</text>
<text x="1560" y="532.8" font-size="28" fill="#2B3A4A" text-anchor="start" font-family="PingFang SC,STHeiti,sans-serif">→ 过早误报（500 元）</text>
<text x="1560" y="565.8" font-size="28" fill="#2B3A4A" text-anchor="start" font-family="PingFang SC,STHeiti,sans-serif">故障才报/不报</text>
<text x="1560" y="602.8" font-size="28" fill="#2B3A4A" text-anchor="start" font-family="PingFang SC,STHeiti,sans-serif">→ 漏报（10000 元）</text>
<rect x="1530" y="660" width="380" height="110" rx="24" fill="#FDEBD3" stroke="#F2A03D" stroke-width="3"/>
<text x="1720" y="733.2" font-size="32" fill="#2B3A4A" text-anchor="middle" font-family="PingFang SC,STHeiti,sans-serif">阈值是业务参数</text>
<text x="1720" y="773.8" font-size="28" fill="#5A6B7B" text-anchor="middle" font-family="PingFang SC,STHeiti,sans-serif">按自己的账本定</text>
<text x="1000.0" y="1330.1" font-size="26" fill="#8A99A8" text-anchor="middle" font-family="PingFang SC,STHeiti,sans-serif">图 10-4 · 预测性维护：健康度趋势 → 预警阈值 → 计划维修</text>
</svg>
